HIERARCHY
ROOT root
{
	OFFSET 0.000000 0.000000 0.000000
	CHANNELS 6 Xposition Yposition Zposition Zrotation Yrotation Xrotation
	JOINT lhip
	{
		OFFSET 0.058581 -0.082280 -0.017664
		CHANNELS 3 Zrotation Yrotation Xrotation
		JOINT lknee
		{
			OFFSET 0.043451 -0.386469 0.008037
			CHANNELS 3 Zrotation Yrotation Xrotation
			JOINT lankle
			{
				OFFSET -0.014790 -0.426874 -0.037428
				CHANNELS 3 Zrotation Yrotation Xrotation
				JOINT ltoe
				{
					OFFSET 0.041054 -0.060286 0.122042
					CHANNELS 3 Zrotation Yrotation Xrotation
					End Site
					{
						OFFSET 0.000000 0.000000 0.000000
					}
				}
			}
		}
	}
	JOINT rhip
	{
		OFFSET -0.060310 -0.090513 -0.013543
		CHANNELS 3 Zrotation Yrotation Xrotation
		JOINT rknee
		{
			OFFSET -0.043257 -0.383688 -0.004843
			CHANNELS 3 Zrotation Yrotation Xrotation
			JOINT rankle
			{
				OFFSET 0.019056 -0.420046 -0.034562
				CHANNELS 3 Zrotation Yrotation Xrotation
				JOINT rtoe
				{
					OFFSET -0.034840 -0.062106 0.130323
					CHANNELS 3 Zrotation Yrotation Xrotation
					End Site
					{
						OFFSET 0.000000 0.000000 0.000000
					}
				}
			}
		}
	}
	JOINT lowerback
	{
		OFFSET 0.004439 0.124404 -0.038385
		CHANNELS 3 Zrotation Yrotation Xrotation
		JOINT upperback
		{
			OFFSET 0.004488 0.137956 0.026820
			CHANNELS 3 Zrotation Yrotation Xrotation
			JOINT chest
			{
				OFFSET -0.002265 0.056032 0.002855
				CHANNELS 3 Zrotation Yrotation Xrotation
				JOINT lowerneck
				{
					OFFSET -0.013390 0.211636 -0.033468
					CHANNELS 3 Zrotation Yrotation Xrotation
					JOINT upperneck
					{
						OFFSET 0.010113 0.088937 0.050410
						CHANNELS 3 Zrotation Yrotation Xrotation
						End Site
						{
							OFFSET 0.000000 0.000000 0.000000
						}
					}
				}
				JOINT lclavicle
				{
					OFFSET 0.071702 0.114000 -0.018898
					CHANNELS 3 Zrotation Yrotation Xrotation
					JOINT lshoulder
					{
						OFFSET 0.122921 0.045205 -0.019046
						CHANNELS 3 Zrotation Yrotation Xrotation
						JOINT lelbow
						{
							OFFSET 0.255332 -0.015649 -0.022946
							CHANNELS 3 Zrotation Yrotation Xrotation
							JOINT lwrist
							{
								OFFSET 0.265709 0.012698 -0.007375
								CHANNELS 3 Zrotation Yrotation Xrotation
								End Site
								{
									OFFSET 0.000000 0.000000 0.000000
								}
							}
						}
					}
				}
				JOINT rclavicle
				{
					OFFSET -0.082954 0.112472 -0.023707
					CHANNELS 3 Zrotation Yrotation Xrotation
					JOINT rshoulder
					{
						OFFSET -0.113228 0.046853 -0.008472
						CHANNELS 3 Zrotation Yrotation Xrotation
						JOINT relbow
						{
							OFFSET -0.260127 -0.014369 -0.031269
							CHANNELS 3 Zrotation Yrotation Xrotation
							JOINT rwrist
							{
								OFFSET -0.269108 0.006794 -0.006027
								CHANNELS 3 Zrotation Yrotation Xrotation
								End Site
								{
									OFFSET 0.000000 0.000000 0.000000
								}
							}
						}
					}
				}
			}
		}
	}
}
MOTION
Frames: 16
Frame Time: 0.033333
0.057945 -0.444141 1.022515 170.669730 2.014269 87.107902 3.931017 7.889441 2.987734 -1.523672 1.200667 8.887992 1.326216 14.802912 -12.843109 0.000000 -0.000000 0.000000 -2.160518 1.089400 -8.465232 0.811623 4.169375 13.616865 5.773311 -2.576184 -6.216553 0.000000 -0.000000 0.000000 0.785537 -3.566009 5.597623 5.268200 -8.539744 1.155218 1.189543 -5.390953 4.312809 -3.761323 15.844398 5.258374 -0.849307 10.938558 8.625220 -10.305765 -10.042340 -5.372069 -32.511484 -33.834646 1.975592 51.198303 -73.966008 -31.081613 32.636113 -13.157644 -0.959370 19.639352 -5.958329 5.246052 63.170897 -14.018309 17.278103 -170.093063 78.520775 -165.241369 -18.956540 13.235500 -94.020711 
0.054587 -0.448983 1.027106 173.184220 2.011359 87.091546 3.671603 8.028622 1.356655 -1.665235 -1.747000 10.584964 0.843247 14.895362 -12.686063 0.000000 -0.000000 0.000000 -2.506941 0.353170 -8.545570 1.142802 3.814685 13.750006 6.051688 -4.704039 -6.319359 0.000000 -0.000000 0.000000 -0.244487 -3.500642 7.592749 7.260680 -13.730312 -0.129752 2.750313 -8.141719 4.021070 -7.078297 21.524439 5.678076 -1.536141 12.075215 7.209352 -0.651271 -17.558978 -4.222330 -22.892448 -34.302284 -8.884438 23.110167 -45.309165 -5.694875 31.024039 -10.178489 -1.401759 16.600984 -5.058070 5.759682 64.805132 -15.636811 16.087108 -168.854234 76.801679 -160.497746 -22.698688 9.664979 -100.840191 
0.049813 -0.449986 1.030177 176.426236 1.870236 87.497421 3.257199 7.868098 0.412083 -1.702498 -4.141257 10.633081 -0.140116 14.102382 -12.328197 0.000000 -0.000000 0.000000 -3.076496 -0.531623 -8.546073 1.076397 2.344481 13.661795 6.280065 -6.015675 -6.168345 0.000000 -0.000000 0.000000 -1.309972 -3.987125 9.190344 9.873756 -18.471166 -1.952413 3.554896 -10.585775 4.259993 -10.314987 25.146037 5.651170 -2.358834 11.973968 4.047061 9.974666 -19.081185 -4.326647 -20.595689 -34.918611 -11.578441 15.555095 -20.475581 -3.883763 30.897062 -7.747648 -6.780617 13.719961 -5.793196 5.026909 65.793613 -15.565961 18.247470 -163.934331 76.183086 -153.989886 -24.594267 7.547140 -102.630761 
0.046467 -0.452264 1.031897 176.757643 1.662288 87.993427 2.985398 8.129741 0.580132 -1.767487 -4.815090 9.141836 -0.964551 13.427243 -11.717912 0.000000 -0.000000 0.000000 -3.405202 -0.045535 -8.758432 0.741825 1.050271 12.795269 6.600098 -6.193120 -5.630421 0.000000 -0.000000 0.000000 -0.775329 -5.673555 10.728612 10.326619 -19.517959 -2.631352 2.657897 -10.960313 3.542975 -10.782870 27.715896 4.545038 -4.282119 11.683712 3.078022 7.875163 -16.440668 -4.568522 -14.153724 -31.066683 -13.399419 15.682773 -29.514294 0.412473 23.298803 -12.204559 -0.433517 14.360984 -7.402566 3.905521 65.742439 -16.486888 18.394081 -170.085981 74.979816 -158.852671 -20.568352 11.762032 -99.618084 
0.048647 -0.453645 1.031295 175.314382 1.408598 88.834219 3.011063 7.024587 0.503687 -2.034899 -2.780113 7.872891 -0.745882 13.364854 -11.093207 0.000000 -0.000000 0.000000 -3.392556 0.215118 -9.461823 0.430733 1.278496 11.974488 6.308851 -5.141379 -4.965625 0.000000 -0.000000 0.000000 -0.229451 -5.497416 10.097561 8.999870 -18.048062 -2.217692 1.959335 -9.967378 3.576675 -11.124151 26.085629 3.675915 -2.837160 12.482128 3.478805 3.327944 -14.635637 -4.952629 -13.199799 -31.603499 -15.926151 25.775225 -45.602889 -16.290388 24.480125 -12.457373 -1.057390 15.354857 -8.931167 3.222277 67.075806 -18.901637 17.703874 -171.796037 73.119932 -159.375036 -14.424250 17.118594 -89.882752 
0.051641 -0.453752 1.030314 175.723056 1.484920 89.125981 3.341769 6.018990 0.239388 -2.150789 -1.212283 7.804446 0.174037 12.513689 -10.763115 0.000000 -0.000000 0.000000 -3.294065 0.015368 -9.271560 0.233190 0.270381 11.324763 6.066162 -4.295805 -4.743278 0.000000 -0.000000 0.000000 0.007921 -5.025338 9.427720 7.850704 -15.934297 -1.721213 1.798917 -9.019777 3.911335 -10.148937 22.727489 3.868715 -1.093393 12.418709 4.620117 -0.829523 -12.277344 -5.497574 -19.330378 -34.989416 -13.219628 43.132974 -58.584949 -29.985929 24.588859 -10.897191 -1.295831 15.215785 -9.686114 3.409416 68.941965 -19.723435 16.985990 -172.552067 71.701008 -157.968602 -7.708923 18.851453 -80.285242 
0.052753 -0.453574 1.029320 178.062589 1.631586 89.538812 3.446741 3.860162 -0.211609 -2.043540 -0.511134 7.391044 1.304861 11.867078 -10.337194 0.000000 -0.000000 0.000000 -3.369374 -1.376305 -8.659473 0.333518 -0.760845 10.244010 6.150917 -3.999282 -4.271194 0.000000 -0.000000 0.000000 0.450024 -3.923515 8.385471 6.960846 -14.162555 -1.284973 1.820971 -8.084367 4.361694 -9.848881 17.469803 3.521555 0.692576 11.742941 5.290222 -5.221638 -9.984170 -6.231818 -31.510749 -38.050495 -4.344738 68.890378 -67.366619 -56.653242 28.078757 -5.645438 -8.497684 15.108059 -9.267849 2.738620 68.967540 -19.774362 18.939569 -169.345449 68.215476 -155.216680 2.528442 14.687676 -68.881946 
0.053669 -0.454091 1.028266 -178.744791 1.449553 89.767721 3.410378 1.540904 -0.971610 -2.064573 -0.206434 7.739521 2.173217 10.809572 -10.243779 0.000000 -0.000000 0.000000 -3.706856 -2.670936 -7.999471 0.278632 -2.376445 9.768260 5.898962 -4.201525 -4.504458 0.000000 -0.000000 0.000000 0.413842 -2.587514 7.617773 5.984622 -11.846346 -1.273564 1.308664 -6.830222 4.938358 -7.973883 12.133905 3.074741 2.309640 9.029659 6.513393 -10.491468 -7.087883 -5.944092 -45.050236 -38.166542 7.719059 100.502524 -72.542816 -92.800102 30.612502 0.198106 -18.452268 16.329640 -8.228122 1.330270 66.173140 -16.613623 22.090591 -167.656874 63.079824 -153.454719 3.377601 9.887883 -56.287365 
0.054109 -0.456293 1.027289 -175.623573 1.007202 89.763013 3.228038 -1.061698 -1.882815 -2.376008 0.288251 8.618260 3.313491 10.454275 -10.337046 0.000000 -0.000000 0.000000 -4.295900 -3.848049 -7.346155 0.371528 -3.206818 9.594784 5.529401 -4.820331 -5.009427 0.000000 -0.000000 0.000000 0.096564 -0.755342 6.882474 4.350309 -8.752187 -0.618889 0.255952 -4.609236 4.826391 -4.158510 5.642142 3.652436 4.274602 5.090387 7.092290 -15.412041 -4.626795 -6.692610 -54.714343 -31.181585 17.613334 137.054067 -74.761711 -133.555967 24.146478 6.203101 -33.461570 18.118587 -6.345255 -0.618108 60.886186 -8.965705 23.656053 -165.258551 57.939664 -147.963931 4.778563 5.746623 -30.108615 
0.055667 -0.457575 1.026464 -173.994477 0.879950 89.276825 3.168854 -2.673944 -2.067452 -2.392969 1.096699 9.400362 4.188072 10.481271 -10.739686 0.000000 -0.000000 0.000000 -4.533418 -4.100562 -6.598960 0.388189 -3.787299 9.674571 5.469342 -5.180525 -5.147238 0.000000 -0.000000 0.000000 -0.152808 1.310454 6.039977 2.886982 -4.873664 1.387726 -0.603022 -1.862754 4.365569 -0.431624 -1.297864 4.648855 5.458091 0.505831 6.349525 -18.323181 -1.877561 -4.328149 -58.086246 -21.262075 21.193373 165.603227 -73.520364 -164.267206 15.894884 4.898119 -47.355340 17.228530 -2.574885 -2.229037 54.750174 4.334869 22.597493 -160.156690 54.370086 -139.516669 8.175057 5.007000 -6.588740 
0.057632 -0.459920 1.024975 -175.505477 1.012175 88.693642 3.297284 -3.031878 -1.324573 -2.679630 1.938347 9.326415 4.512339 11.980851 -11.034234 0.000000 -0.000000 0.000000 -4.266570 -3.094818 -7.001249 0.597333 -2.155032 10.833588 5.245987 -5.714929 -4.971523 0.000000 -0.000000 0.000000 0.097283 2.961523 4.884954 1.321179 0.361233 4.261516 -1.383087 1.790620 3.674584 2.540176 -8.359920 6.200293 5.959054 -2.605023 4.976308 -19.637130 0.436399 -2.033941 -57.117826 -10.483622 21.953599 179.723975 -72.269340 -179.748042 9.547689 1.396619 -57.592717 14.362161 3.252708 -3.412654 44.071911 20.429644 17.071770 -150.248198 56.659939 -130.626335 12.258602 3.365972 6.858457 
0.060820 -0.460560 1.023030 -179.320115 1.054182 87.398647 3.433073 -2.352818 0.651771 -3.171998 3.001696 9.050422 4.419423 14.409025 -11.544430 0.000000 -0.000000 0.000000 -3.755824 -2.013470 -7.251347 0.863785 1.009355 12.145356 4.907941 -6.192786 -4.703966 0.000000 -0.000000 0.000000 0.976924 3.360972 4.971556 -0.543663 5.155173 5.758366 -2.073921 5.154337 3.337343 4.381268 -12.520928 7.736718 4.784522 -3.349933 4.924357 -18.811138 4.512149 1.070673 -54.763384 -0.827691 21.524787 -172.786773 -73.560845 174.954077 6.979930 -2.652887 -65.790163 9.777003 11.103742 -3.825820 28.434610 36.065627 6.581109 -107.363329 69.157610 -91.434564 4.925928 4.024024 16.503890 
0.064455 -0.460996 1.022175 177.567313 1.126246 86.557291 3.897333 -1.690332 2.127290 -4.002132 3.676981 8.537972 3.910064 16.414769 -12.244580 0.000000 -0.000000 0.000000 -3.045097 -1.450203 -7.248067 0.942786 3.865829 12.400069 4.893149 -6.460801 -4.318356 0.000000 -0.000000 0.000000 1.993005 3.079541 5.076072 -2.529839 8.316246 6.387140 -1.942581 6.880189 3.304868 4.152314 -15.581515 9.047934 4.224385 -1.056098 5.467872 -16.097952 7.486229 6.183579 -57.909174 6.523741 18.560474 -175.013942 -77.467644 176.590470 7.727268 -6.218665 -62.527348 1.110324 20.039932 -6.325329 15.682636 47.790305 -6.266399 -33.197174 49.258184 -21.518643 7.198009 -0.271229 37.882880 
0.069635 -0.461893 1.021610 177.997082 1.343434 86.339283 4.423617 -1.726708 2.543088 -4.345923 2.056817 7.634998 3.137838 17.711410 -12.112375 0.000000 -0.000000 0.000000 -2.400044 -1.137300 -6.576529 0.829723 4.286301 11.342670 4.857152 -7.658989 -3.671194 0.000000 -0.000000 0.000000 2.276616 3.356528 5.378891 -4.055112 11.067115 5.251580 -0.872797 7.655615 3.444293 5.552091 -18.891256 10.226727 4.562631 -1.769693 5.333823 -13.927605 8.837516 9.161853 -59.126235 8.455199 21.275673 173.777290 -80.731199 -167.556607 11.524938 -8.293345 -65.638296 -9.886669 23.391390 -9.916070 9.677851 54.328106 -11.880563 -18.129902 8.861610 -10.744543 5.590137 0.572672 25.395318 
0.074034 -0.461566 1.023225 -178.102539 1.622592 86.545291 4.606071 -2.546625 1.671148 -3.715801 -0.013405 7.575821 2.520178 16.683817 -11.781452 0.000000 -0.000000 0.000000 -1.994311 -2.607245 -5.384823 0.696678 3.460180 9.610187 4.775446 -9.275729 -3.594624 0.000000 -0.000000 0.000000 1.672274 4.780925 5.077400 -4.128385 11.175948 5.989608 -0.177167 7.149930 3.329191 7.058622 -22.079573 9.153996 6.436935 -2.693174 4.250026 -14.507889 8.301715 9.226701 -58.167417 8.983662 20.407368 178.029021 -80.649146 -172.675850 11.758538 -8.116905 -62.168636 -9.492963 22.317695 -10.406593 3.934885 49.985265 -17.827524 -15.842288 15.979660 -15.385144 3.514055 -0.027557 22.151757 
0.073615 -0.458255 1.024841 -172.616712 2.173549 86.757238 5.167899 -3.555313 0.948009 -3.477793 -1.977898 7.737209 2.406489 14.361228 -11.595595 0.000000 -0.000000 0.000000 -1.914730 -4.295596 -3.383870 0.586935 0.521208 7.729003 4.408834 -9.928405 -3.447791 0.000000 -0.000000 0.000000 0.840210 5.065364 4.944361 -3.031959 8.929777 6.062256 0.862311 5.631036 3.420799 6.058236 -23.132956 10.233808 6.336042 -3.875737 3.084117 -14.932215 8.137573 9.508626 -60.205815 9.344939 19.698872 -179.497532 -80.455717 -174.224735 10.927677 -6.325273 -61.725645 -7.047164 19.875801 -10.178193 3.559761 49.720987 -19.107403 -20.601716 26.081884 -15.843453 3.858777 0.084297 26.678310 
